<?xml version="1.0" encoding="utf-8"?>
<!DOCTYPE svg PUBLIC "-//W3C//DTD SVG 1.1//EN" "http://www.w3.org/Graphics/SVG/1.1/DTD/svg11.dtd">
<svg version="1.1" xmlns="http://www.w3.org/2000/svg" xmlns:xlink="http://www.w3.org/1999/xlink" x="0px" y="0px"
	 viewBox="0 0 75.1 200" enable-background="new 0 0 75.1 200" xml:space="preserve">
<g>
	<g>
		<path d="M0.7,196.8c1.9-0.9,3.1-2.3,4-4.2c3.2-6.6,6.4-13.2,9.8-19.6c1.8-3.5,2.3-7.1,2.2-10.8c0-1.1-0.1-2.2,1.1-2.4
			c2.4-0.3,2.8-2.2,3.3-4c2.1-7.3,4.4-14.6,5.4-22.2c0.4-3.4-1.5-7.2,1.9-10.1c0.9-9,2-18,2.6-27.1c1.4-21,2.8-41.9,2.9-63
			c0-2.1-0.9-4.4-0.7-6.1c0.4-3.4-1.7-7.7,2.6-10c1.3-0.7,1.1-2,1.1-3.2c0-4,0-8.1,0.5-12.1c1.4,0.6,1.2,1.7,1.2,2.6
			c0.2,3.3,0.4,6.6,0.6,9.9c0,0.5-0.1,1.4,0.2,1.6c3.3,2.3,3.6,5.7,3.8,9.2c0,0.5,0.3,1.1,0.3,1.6c-2.3,14.3-0.2,28.6,0.2,43
			c0.3,9.1,0.9,18.1,1.5,27.2c0.6,8.6,1.4,17.2,2.1,25.8c0,0.2,0,0.5,0.1,0.6c3.8,4.4,1.5,10.2,3.3,15.2c1.8,5.1,2.6,10.5,4,15.7
			c0.6,2.4,0.9,4.8,3.7,6.3c1.6,0.8,1.1,3.5,1.2,5.2c0.2,2.3,0.8,4.3,1.8,6.3c3,6.2,5.9,12.4,8.9,18.5c1.1,2.2,2.1,4.4,4.4,5.7
			c1.2,0.6,1.3,1.8,0.9,2.9c-0.4,1.3-1.5,1.1-2.5,1.1c-3.3,0-6.6-0.1-10,0c-2.1,0.1-2.8-0.8-3.2-2.8c-1.7-9.5-6.3-16.8-16.3-19.3
			c-13.4-3.4-25.3,4.2-27.7,17.8c-0.6,3.4-1.9,4.8-5.3,4.4c-3.4-0.3-6.8-0.2-10.3-0.3C0.7,199.1,0.7,197.9,0.7,196.8z"/>
	</g>
</g>
</svg>
