<?xml version="1.0" encoding="utf-8"?>
<!DOCTYPE svg PUBLIC "-//W3C//DTD SVG 1.1//EN" "http://www.w3.org/Graphics/SVG/1.1/DTD/svg11.dtd">
<svg version="1.1" xmlns="http://www.w3.org/2000/svg" xmlns:xlink="http://www.w3.org/1999/xlink" x="0px" y="0px"
	 viewBox="0 0 41.7 200" enable-background="new 0 0 41.7 200" xml:space="preserve">
<g>
	<g>
		<path d="M20.8,0.7c0.9,0,1.7,0,2.6,0c0,7.2,0,14.5,0,22.1c2.7,0,5.1,0,7.9,0c0,2.4,0,4.4,0,6.7c2.4,0,4.4,0,6.7,0
			c0,5.4,0,10.4,0,15.4c1.6,0.2,2.8,0.3,4.1,0.4c0,51.8,0,103.4,0,155.3c-14,0-27.7,0-41.5,0c0-51.9,0-103.8,0-155.7
			c1.6,0,3.2,0,5.1,0c0-5.3,0-10.3,0-15.7c2.4,0,4.4,0,6.7,0c0-2.3,0-4.3,0-6.7c3,0,5.6,0,8.4,0C20.8,15,20.8,7.8,20.8,0.7z"/>
	</g>
</g>
</svg>
