<?xml version="1.0" encoding="utf-8"?>
<!DOCTYPE svg PUBLIC "-//W3C//DTD SVG 1.1//EN" "http://www.w3.org/Graphics/SVG/1.1/DTD/svg11.dtd">
<svg version="1.1" xmlns="http://www.w3.org/2000/svg" xmlns:xlink="http://www.w3.org/1999/xlink" x="0px" y="0px"
	 viewBox="0 0 200 59.9" enable-background="new 0 0 200 59.9" xml:space="preserve">
<g>
	<g>
		<path d="M201.3,47.8c0,0.3,0,0.5,0,0.8c-7.3,1.1-14.6,2.2-21.8,3.4c-1.9,0.3-4.4,0.2-5.7,1.4c-5,4.8-11.2,5.6-17.6,5.7
			c-5.1,0.1-9.5-1.6-12.7-5.8c-0.6-0.8-1.9-1.5-2.9-1.5c-24.4-0.3-48.7-0.5-73.1-0.6c-1.9,0-4.1,0.5-5.8,1.4
			c-5.1,2.6-10.1,5.4-15.1,8.2c-0.8,0-1.6,0-2.4,0c-2.8-1.8-5.9-3.3-8.3-5.6c-2.3-2.2-4.8-3.1-7.9-3.4C19.5,51,11,50,2.6,49.1
			c-0.5-1.7-0.9-3.1-1.3-4.6c0-4,0-8.1,0-12.1c2.1-6.5,5.6-11.5,12.8-12.8c1.4-0.3,2.8-0.9,4.2-1.3c15.1-4.9,30.1-10,45.3-14.4
			c6-1.8,12.4-2,18.6-3c7,0,14,0,21.1,0c6,2.4,12.2,4.2,17.8,7.3c13.5,7.5,28.2,10.7,43.3,12.2c7.5,0.7,14.5,2.4,20.9,6.6
			c3.8,2.5,7.8,4.8,11.7,7.1c3.2,1.9,3.4,4.5,1.9,7.5c-0.6,1.2-1.2,2.3-1.9,3.7C198.6,46.2,200,47,201.3,47.8z"/>
	</g>
</g>
</svg>
