<?xml version="1.0" encoding="utf-8"?>
<!DOCTYPE svg PUBLIC "-//W3C//DTD SVG 1.1//EN" "http://www.w3.org/Graphics/SVG/1.1/DTD/svg11.dtd">
<svg version="1.1" xmlns="http://www.w3.org/2000/svg" xmlns:xlink="http://www.w3.org/1999/xlink" x="0px" y="0px"
	 viewBox="0 0 200 48.5" enable-background="new 0 0 200 48.5" xml:space="preserve">
<g>
	<g>
		<path d="M83.8-0.1c0.1,0,0.3,0,0.4,0c1.6,0.3,3.2,0.6,5,1c-0.3,4.2-0.6,8.3-0.9,12.4c6,0,11.9,0,17.8,0c0.3-4.2,0.6-8.2,0.9-12.5
			c2,0.1,3.8,0.2,5.8,0.3c0,4.3,0,8.4,0,12.6c6,0,11.8,0,17.6-0.1c0.5,0,1.2-0.9,1.3-1.5c0.3-2.1,0.5-4.2,0.7-6.3
			c0.5-5,0.5-5,5.6-5.3c0.1,0,0.2,0.1,0.4,0.2c0,4.4,0,8.9,0,13.5c4.9,0,9.7,0,14.5,0c-0.1,1.5-0.2,2.8-0.2,4.2c1.9,0,3.6,0,4,2.4
			c0,0.3,1.1,0.5,1.7,0.5c3.1,0.2,6.2,0.4,9.3,0.6c0.3,1.3,0.5,2.4,0.8,3.6c0.9,0,1.6,0.1,2.3,0.1c9,0.2,18,0.4,27.1,0.6
			c0.9,0,2.5,0.6,2.5,0.8c-0.1,1.7,1.3,3.8-1,5.1c-2.5,1.4-5,2.9-6.9,4.1c0.5,3.2,1.2,5.9,1.3,8.5c0,3-0.9,3.6-3.9,3.6
			c-60.5-0.6-120.9-1.1-181.4-1.7c-4.6,0-3.6-0.2-4.3-3.7c-1.2-5.9-2.3-11.8-3.5-17.7c0-0.3,0-0.6,0-0.9c0.7-0.1,1.4-0.2,2.1-0.2
			c12.6,0,25.2,0.1,37.8,0.2c0.8,0,1.6,0,2.5,0c0.2-3.7,0.3-7.3,0.5-11c4.6,0,9.1,0,13.8,0c0.5-4.6,0.9-9,1.4-13.4
			c0.4,0,0.9,0,1.3,0c1.4,0.4,2.9,0.7,4.4,1.1c-0.2,4.1-0.4,8-0.5,12c6.2,0,12.3,0,18.3,0C82.6,8.5,83.2,4.2,83.8-0.1z"/>
	</g>
</g>
</svg>
